<?xml version="1.0" standalone="no"?>
<!DOCTYPE svg PUBLIC "-//W3C//DTD SVG 20010904//EN"
 "http://www.w3.org/TR/2001/REC-SVG-20010904/DTD/svg10.dtd">
<svg version="1.0" xmlns="http://www.w3.org/2000/svg"
 width="640.000000pt" height="640.000000pt" viewBox="0 0 640.000000 640.000000"
 preserveAspectRatio="xMidYMid meet">
<metadata>
Created by potrace 1.14, written by Peter Selinger 2001-2017
</metadata>
<g transform="translate(0.000000,640.000000) scale(0.100000,-0.100000)"
fill="#000000" stroke="none">
<path d="M1630 5009 c-296 -28 -621 -150 -870 -327 -115 -81 -323 -287 -405
-400 -402 -557 -467 -1267 -170 -1877 177 -365 448 -642 805 -824 524 -266
1118 -264 1640 5 541 279 902 810 969 1426 53 485 -101 985 -420 1364 -378
450 -963 689 -1549 633z"/>
<path d="M4561 4895 c-205 -58 -395 -249 -536 -540 -99 -205 -166 -431 -212
-725 -26 -166 -26 -694 0 -860 80 -507 243 -883 479 -1105 133 -125 276 -183
428 -172 593 42 1001 1130 829 2207 -95 599 -364 1058 -689 1178 -83 31 -221
39 -299 17z"/>
<path d="M6028 4710 c-34 -26 -90 -137 -122 -238 -89 -284 -136 -724 -136
-1272 0 -548 47 -988 136 -1272 32 -101 88 -212 122 -238 194 -153 372 571
372 1510 0 941 -178 1663 -372 1510z"/>
</g>
</svg>
